<?xml version="1.0" encoding="utf-8"?>
<svg viewBox="223.707 229.946 162.21 150.624" xmlns="http://www.w3.org/2000/svg" xmlns:bx="https://boxy-svg.com">
  <path d="M 253.049 262.932 Q 257.388 245.098 271.917 262.932 L 292.958 288.761 Q 307.486 306.595 288.618 306.595 L 261.292 306.595 Q 242.424 306.595 246.764 288.761 Z" style="stroke: rgb(0, 0, 0); fill: rgb(153, 15, 54);" bx:shape="triangle 242.424 245.098 65.062 61.497 0.23 0.29 1@9130df13"/>
  <path d="M 332.437 265.089 Q 349.18 247.772 352.856 265.089 L 358.179 290.17 Q 361.854 307.487 341.435 307.487 L 311.863 307.487 Q 291.444 307.487 308.187 290.17 Z" style="stroke: rgb(0, 0, 0); fill: rgb(153, 15, 54);" bx:shape="triangle 291.444 247.772 70.41 59.715 0.82 0.29 1@4f9bbfc2"/>
  <path d="M 285.599 312.505 Q 298.502 300.357 299.04 312.505 L 299.818 330.098 Q 300.356 342.246 286.916 342.246 L 267.45 342.246 Q 254.01 342.246 266.913 330.098 Z" style="stroke: rgb(0, 0, 0); fill: rgb(228, 23, 81);" bx:shape="triangle 254.01 300.357 46.346 41.889 0.96 0.29 1@ce1aed77"/>
  <path d="M 301.622 312.505 Q 302.139 300.357 314.545 312.505 L 332.513 330.098 Q 344.919 342.246 331.996 342.246 L 313.279 342.246 Q 300.356 342.246 300.873 330.098 Z" style="stroke: rgb(0, 0, 0); fill: rgb(228, 23, 81);" bx:shape="triangle 300.356 300.357 44.563 41.889 0.04 0.29 1@368fe772"/>
  <path style="fill: rgb(216, 216, 216); stroke: rgb(0, 0, 0);" d="M 302.139 316.399 L 290.553 257.576"/>
  <path style="fill: rgb(216, 216, 216); stroke: rgb(0, 0, 0);" d="M 306.595 257.576 L 300.357 315.508 L 300.357 316.4"/>
</svg>